{
    "asset" : {
        "generator" : "Khronos glTF Blender I/O v1.8.19",
        "version" : "2.0"
    },
    "scene" : 0,
    "scenes" : [
        {
            "name" : "Scene",
            "nodes" : [
                0
            ]
        }
    ],
    "nodes" : [
        {
            "mesh" : 0,
            "name" : "Plane",
            "rotation" : [
                -0.7020140290260315,
                -0.0005325139500200748,
                0.0019752264488488436,
                -0.7121602892875671
            ],
            "scale" : [
                10,
                1,
                10
            ]
        }
    ],
    "materials" : [
        {
            "doubleSided" : true,
            "name" : "Material.001",
            "pbrMetallicRoughness" : {
                "baseColorFactor" : [
                    0.800000011920929,
                    0.800000011920929,
                    0.800000011920929,
                    1
                ],
                "metallicFactor" : 0,
                "roughnessFactor" : 0.5
            }
        }
    ],
    "meshes" : [
        {
            "name" : "Plane",
            "primitives" : [
                {
                    "attributes" : {
                        "POSITION" : 0,
                        "NORMAL" : 1
                    },
                    "indices" : 2,
                    "material" : 0
                }
            ]
        }
    ],
    "accessors" : [
        {
            "bufferView" : 0,
            "componentType" : 5126,
            "count" : 1741790,
            "max" : [
                0.8255575299263,
                0.5035795569419861,
                0.9631134271621704
            ],
            "min" : [
                -0.8252659440040588,
                -1.6116207838058472,
                -0.9315330982208252
            ],
            "type" : "VEC3"
        },
        {
            "bufferView" : 1,
            "componentType" : 5126,
            "count" : 1741790,
            "type" : "VEC3"
        },
        {
            "bufferView" : 2,
            "componentType" : 5125,
            "count" : 1802130,
            "type" : "SCALAR"
        }
    ],
    "bufferViews" : [
        {
            "buffer" : 0,
            "byteLength" : 20901480,
            "byteOffset" : 0
        },
        {
            "buffer" : 0,
            "byteLength" : 20901480,
            "byteOffset" : 20901480
        },
        {
            "buffer" : 0,
            "byteLength" : 7208520,
            "byteOffset" : 41802960
        }
    ],
    "buffers" : [
        {
            "byteLength" : 49011480,
            "uri" : "tes.bin"
        }
    ]
}
